<mxfile host="app.diagrams.net" agent="Mozilla/5.0 (Windows NT 10.0; Win64; x64; rv:130.0) Gecko/20100101 Firefox/130.0" version="24.7.16">
  <diagram name="Page-1" id="2KdAhjclU4C4iP0jfp1A">
    <mxGraphModel dx="2049" dy="1106" grid="1" gridSize="10" guides="1" tooltips="1" connect="1" arrows="1" fold="1" page="1" pageScale="1" pageWidth="850" pageHeight="1100" math="0" shadow="0">
      <root>
        <mxCell id="0" />
        <mxCell id="1" parent="0" />
        <mxCell id="M2dyejhgCw-LeY_53g7T-2" style="edgeStyle=orthogonalEdgeStyle;rounded=0;orthogonalLoop=1;jettySize=auto;html=1;" edge="1" parent="1">
          <mxGeometry relative="1" as="geometry">
            <mxPoint x="250" y="190" as="sourcePoint" />
            <mxPoint x="180" y="20" as="targetPoint" />
          </mxGeometry>
        </mxCell>
        <mxCell id="M2dyejhgCw-LeY_53g7T-3" style="edgeStyle=orthogonalEdgeStyle;rounded=0;orthogonalLoop=1;jettySize=auto;html=1;" edge="1" parent="1" source="M2dyejhgCw-LeY_53g7T-7">
          <mxGeometry relative="1" as="geometry">
            <mxPoint x="310" y="60" as="targetPoint" />
          </mxGeometry>
        </mxCell>
        <mxCell id="M2dyejhgCw-LeY_53g7T-4" style="edgeStyle=orthogonalEdgeStyle;rounded=0;orthogonalLoop=1;jettySize=auto;html=1;entryX=0.5;entryY=1;entryDx=0;entryDy=0;" edge="1" parent="1" source="M2dyejhgCw-LeY_53g7T-7" target="M2dyejhgCw-LeY_53g7T-88">
          <mxGeometry relative="1" as="geometry">
            <mxPoint x="440" y="70" as="targetPoint" />
            <Array as="points">
              <mxPoint x="430" y="190" />
            </Array>
          </mxGeometry>
        </mxCell>
        <mxCell id="M2dyejhgCw-LeY_53g7T-5" style="edgeStyle=orthogonalEdgeStyle;rounded=0;orthogonalLoop=1;jettySize=auto;html=1;entryX=0.5;entryY=1;entryDx=0;entryDy=0;" edge="1" parent="1" source="M2dyejhgCw-LeY_53g7T-7" target="M2dyejhgCw-LeY_53g7T-89">
          <mxGeometry relative="1" as="geometry">
            <mxPoint x="580" y="65" as="targetPoint" />
          </mxGeometry>
        </mxCell>
        <mxCell id="M2dyejhgCw-LeY_53g7T-6" style="edgeStyle=orthogonalEdgeStyle;rounded=0;orthogonalLoop=1;jettySize=auto;html=1;entryX=0.5;entryY=0;entryDx=0;entryDy=0;" edge="1" parent="1" source="M2dyejhgCw-LeY_53g7T-7" target="M2dyejhgCw-LeY_53g7T-15">
          <mxGeometry relative="1" as="geometry" />
        </mxCell>
        <mxCell id="M2dyejhgCw-LeY_53g7T-85" style="edgeStyle=orthogonalEdgeStyle;rounded=0;orthogonalLoop=1;jettySize=auto;html=1;exitX=0;exitY=1;exitDx=0;exitDy=0;entryX=0.5;entryY=1;entryDx=0;entryDy=0;" edge="1" parent="1" source="M2dyejhgCw-LeY_53g7T-7" target="M2dyejhgCw-LeY_53g7T-82">
          <mxGeometry relative="1" as="geometry">
            <Array as="points">
              <mxPoint x="250" y="220" />
              <mxPoint x="70" y="220" />
            </Array>
          </mxGeometry>
        </mxCell>
        <mxCell id="M2dyejhgCw-LeY_53g7T-7" value="&lt;h2&gt;Member&lt;/h2&gt;" style="rounded=0;whiteSpace=wrap;html=1;fillColor=#b1ddf0;strokeColor=#10739e;" vertex="1" parent="1">
          <mxGeometry x="250" y="190" width="120" height="60" as="geometry" />
        </mxCell>
        <mxCell id="M2dyejhgCw-LeY_53g7T-13" value="&lt;h2&gt;minor&lt;/h2&gt;" style="rounded=0;whiteSpace=wrap;html=1;fillColor=#b1ddf0;strokeColor=#10739e;" vertex="1" parent="1">
          <mxGeometry x="80" y="440" width="120" height="60" as="geometry" />
        </mxCell>
        <mxCell id="M2dyejhgCw-LeY_53g7T-14" style="edgeStyle=orthogonalEdgeStyle;rounded=0;orthogonalLoop=1;jettySize=auto;html=1;entryX=0.5;entryY=0;entryDx=0;entryDy=0;" edge="1" parent="1" source="M2dyejhgCw-LeY_53g7T-15" target="M2dyejhgCw-LeY_53g7T-13">
          <mxGeometry relative="1" as="geometry" />
        </mxCell>
        <mxCell id="M2dyejhgCw-LeY_53g7T-15" value="&lt;h2&gt;parent&lt;/h2&gt;" style="rhombus;whiteSpace=wrap;html=1;fillColor=#d5e8d4;strokeColor=#82b366;" vertex="1" parent="1">
          <mxGeometry x="160" y="310" width="100" height="60" as="geometry" />
        </mxCell>
        <mxCell id="M2dyejhgCw-LeY_53g7T-16" style="edgeStyle=orthogonalEdgeStyle;rounded=0;orthogonalLoop=1;jettySize=auto;html=1;entryX=0.75;entryY=1;entryDx=0;entryDy=0;" edge="1" parent="1" source="M2dyejhgCw-LeY_53g7T-17" target="M2dyejhgCw-LeY_53g7T-7">
          <mxGeometry relative="1" as="geometry" />
        </mxCell>
        <mxCell id="M2dyejhgCw-LeY_53g7T-17" value="&lt;h2&gt;Courses&lt;/h2&gt;" style="rounded=0;whiteSpace=wrap;html=1;fillColor=#b1ddf0;strokeColor=#10739e;" vertex="1" parent="1">
          <mxGeometry x="435" y="585" width="120" height="60" as="geometry" />
        </mxCell>
        <mxCell id="M2dyejhgCw-LeY_53g7T-18" style="edgeStyle=orthogonalEdgeStyle;rounded=0;orthogonalLoop=1;jettySize=auto;html=1;entryX=0;entryY=1;entryDx=0;entryDy=0;exitX=1;exitY=0.5;exitDx=0;exitDy=0;" edge="1" parent="1" source="M2dyejhgCw-LeY_53g7T-94" target="M2dyejhgCw-LeY_53g7T-17">
          <mxGeometry relative="1" as="geometry">
            <mxPoint x="410" y="755" as="sourcePoint" />
            <Array as="points">
              <mxPoint x="340" y="720" />
              <mxPoint x="435" y="720" />
            </Array>
          </mxGeometry>
        </mxCell>
        <mxCell id="M2dyejhgCw-LeY_53g7T-20" style="edgeStyle=orthogonalEdgeStyle;rounded=0;orthogonalLoop=1;jettySize=auto;html=1;" edge="1" parent="1" target="M2dyejhgCw-LeY_53g7T-17">
          <mxGeometry relative="1" as="geometry">
            <mxPoint x="515" y="770" as="sourcePoint" />
            <Array as="points">
              <mxPoint x="495" y="770" />
            </Array>
          </mxGeometry>
        </mxCell>
        <mxCell id="M2dyejhgCw-LeY_53g7T-22" style="edgeStyle=orthogonalEdgeStyle;rounded=0;orthogonalLoop=1;jettySize=auto;html=1;" edge="1" parent="1">
          <mxGeometry relative="1" as="geometry">
            <Array as="points">
              <mxPoint x="665" y="720" />
              <mxPoint x="555" y="720" />
              <mxPoint x="555" y="655" />
            </Array>
            <mxPoint x="665" y="760" as="sourcePoint" />
            <mxPoint x="555" y="650" as="targetPoint" />
          </mxGeometry>
        </mxCell>
        <mxCell id="M2dyejhgCw-LeY_53g7T-24" style="edgeStyle=orthogonalEdgeStyle;rounded=0;orthogonalLoop=1;jettySize=auto;html=1;entryX=0.5;entryY=0;entryDx=0;entryDy=0;" edge="1" parent="1" source="M2dyejhgCw-LeY_53g7T-25" target="M2dyejhgCw-LeY_53g7T-33">
          <mxGeometry relative="1" as="geometry" />
        </mxCell>
        <mxCell id="M2dyejhgCw-LeY_53g7T-25" value="&lt;h2&gt;trainer&lt;/h2&gt;" style="rounded=0;whiteSpace=wrap;html=1;fillColor=#b1ddf0;strokeColor=#10739e;" vertex="1" parent="1">
          <mxGeometry x="580" y="320" width="120" height="60" as="geometry" />
        </mxCell>
        <mxCell id="M2dyejhgCw-LeY_53g7T-26" style="edgeStyle=orthogonalEdgeStyle;rounded=0;orthogonalLoop=1;jettySize=auto;html=1;entryX=1;entryY=0.25;entryDx=0;entryDy=0;exitX=0;exitY=0.5;exitDx=0;exitDy=0;" edge="1" parent="1" source="M2dyejhgCw-LeY_53g7T-90" target="M2dyejhgCw-LeY_53g7T-25">
          <mxGeometry relative="1" as="geometry">
            <mxPoint x="790" y="240" as="sourcePoint" />
          </mxGeometry>
        </mxCell>
        <mxCell id="M2dyejhgCw-LeY_53g7T-28" style="edgeStyle=orthogonalEdgeStyle;rounded=0;orthogonalLoop=1;jettySize=auto;html=1;entryX=1;entryY=0.5;entryDx=0;entryDy=0;" edge="1" parent="1" target="M2dyejhgCw-LeY_53g7T-25">
          <mxGeometry relative="1" as="geometry">
            <mxPoint x="840" y="360" as="sourcePoint" />
            <Array as="points">
              <mxPoint x="810" y="360" />
              <mxPoint x="810" y="350" />
            </Array>
          </mxGeometry>
        </mxCell>
        <mxCell id="M2dyejhgCw-LeY_53g7T-30" style="edgeStyle=orthogonalEdgeStyle;rounded=0;orthogonalLoop=1;jettySize=auto;html=1;entryX=1;entryY=0.75;entryDx=0;entryDy=0;" edge="1" parent="1" target="M2dyejhgCw-LeY_53g7T-25">
          <mxGeometry relative="1" as="geometry">
            <mxPoint x="850" y="460" as="sourcePoint" />
          </mxGeometry>
        </mxCell>
        <mxCell id="M2dyejhgCw-LeY_53g7T-32" style="edgeStyle=orthogonalEdgeStyle;rounded=0;orthogonalLoop=1;jettySize=auto;html=1;entryX=0.5;entryY=0;entryDx=0;entryDy=0;" edge="1" parent="1" source="M2dyejhgCw-LeY_53g7T-33" target="M2dyejhgCw-LeY_53g7T-17">
          <mxGeometry relative="1" as="geometry" />
        </mxCell>
        <mxCell id="M2dyejhgCw-LeY_53g7T-33" value="&lt;h2&gt;teaches&lt;/h2&gt;" style="rhombus;whiteSpace=wrap;html=1;fillColor=#d5e8d4;strokeColor=#82b366;" vertex="1" parent="1">
          <mxGeometry x="475" y="430" width="105" height="80" as="geometry" />
        </mxCell>
        <mxCell id="M2dyejhgCw-LeY_53g7T-34" style="edgeStyle=orthogonalEdgeStyle;rounded=0;orthogonalLoop=1;jettySize=auto;html=1;entryX=0.5;entryY=0;entryDx=0;entryDy=0;" edge="1" parent="1" source="M2dyejhgCw-LeY_53g7T-35">
          <mxGeometry relative="1" as="geometry">
            <mxPoint x="800" y="830" as="targetPoint" />
          </mxGeometry>
        </mxCell>
        <mxCell id="M2dyejhgCw-LeY_53g7T-35" value="&lt;h2&gt;Area&lt;/h2&gt;" style="rounded=0;whiteSpace=wrap;html=1;fillColor=#b1ddf0;strokeColor=#10739e;" vertex="1" parent="1">
          <mxGeometry x="730" y="562.5" width="120" height="60" as="geometry" />
        </mxCell>
        <mxCell id="M2dyejhgCw-LeY_53g7T-36" value="&lt;h2&gt;fitness&lt;/h2&gt;" style="rounded=0;whiteSpace=wrap;html=1;fillColor=#b1ddf0;strokeColor=#10739e;" vertex="1" parent="1">
          <mxGeometry x="1160" y="490" width="120" height="60" as="geometry" />
        </mxCell>
        <mxCell id="M2dyejhgCw-LeY_53g7T-37" value="&lt;h2&gt;wrestling&lt;/h2&gt;" style="rounded=0;whiteSpace=wrap;html=1;fillColor=#b1ddf0;strokeColor=#10739e;" vertex="1" parent="1">
          <mxGeometry x="1200" y="585" width="120" height="60" as="geometry" />
        </mxCell>
        <mxCell id="M2dyejhgCw-LeY_53g7T-38" value="&lt;h2&gt;athletics&lt;/h2&gt;" style="rounded=0;whiteSpace=wrap;html=1;fillColor=#b1ddf0;strokeColor=#10739e;" vertex="1" parent="1">
          <mxGeometry x="1181" y="695" width="120" height="60" as="geometry" />
        </mxCell>
        <mxCell id="M2dyejhgCw-LeY_53g7T-39" style="edgeStyle=orthogonalEdgeStyle;rounded=0;orthogonalLoop=1;jettySize=auto;html=1;" edge="1" parent="1" source="M2dyejhgCw-LeY_53g7T-41" target="M2dyejhgCw-LeY_53g7T-36">
          <mxGeometry relative="1" as="geometry">
            <Array as="points">
              <mxPoint x="1130" y="518" />
              <mxPoint x="1130" y="518" />
            </Array>
          </mxGeometry>
        </mxCell>
        <mxCell id="M2dyejhgCw-LeY_53g7T-40" style="edgeStyle=orthogonalEdgeStyle;rounded=0;orthogonalLoop=1;jettySize=auto;html=1;entryX=1;entryY=0.25;entryDx=0;entryDy=0;" edge="1" parent="1" source="M2dyejhgCw-LeY_53g7T-41" target="M2dyejhgCw-LeY_53g7T-35">
          <mxGeometry relative="1" as="geometry" />
        </mxCell>
        <mxCell id="M2dyejhgCw-LeY_53g7T-41" value="&lt;h2&gt;allied&lt;/h2&gt;" style="rhombus;whiteSpace=wrap;html=1;fillColor=#d5e8d4;strokeColor=#82b366;" vertex="1" parent="1">
          <mxGeometry x="980" y="480" width="100" height="75" as="geometry" />
        </mxCell>
        <mxCell id="M2dyejhgCw-LeY_53g7T-42" style="edgeStyle=orthogonalEdgeStyle;rounded=0;orthogonalLoop=1;jettySize=auto;html=1;" edge="1" parent="1" source="M2dyejhgCw-LeY_53g7T-44" target="M2dyejhgCw-LeY_53g7T-37">
          <mxGeometry relative="1" as="geometry">
            <Array as="points" />
          </mxGeometry>
        </mxCell>
        <mxCell id="M2dyejhgCw-LeY_53g7T-43" style="edgeStyle=orthogonalEdgeStyle;rounded=0;orthogonalLoop=1;jettySize=auto;html=1;entryX=1;entryY=0.5;entryDx=0;entryDy=0;" edge="1" parent="1" source="M2dyejhgCw-LeY_53g7T-44" target="M2dyejhgCw-LeY_53g7T-35">
          <mxGeometry relative="1" as="geometry" />
        </mxCell>
        <mxCell id="M2dyejhgCw-LeY_53g7T-44" value="&lt;h2&gt;allied&lt;/h2&gt;" style="rhombus;whiteSpace=wrap;html=1;fillColor=#d5e8d4;strokeColor=#82b366;" vertex="1" parent="1">
          <mxGeometry x="1000" y="575" width="100" height="75" as="geometry" />
        </mxCell>
        <mxCell id="M2dyejhgCw-LeY_53g7T-45" style="edgeStyle=orthogonalEdgeStyle;rounded=0;orthogonalLoop=1;jettySize=auto;html=1;" edge="1" parent="1" source="M2dyejhgCw-LeY_53g7T-47" target="M2dyejhgCw-LeY_53g7T-38">
          <mxGeometry relative="1" as="geometry">
            <Array as="points">
              <mxPoint x="1126" y="712" />
              <mxPoint x="1126" y="710" />
            </Array>
          </mxGeometry>
        </mxCell>
        <mxCell id="M2dyejhgCw-LeY_53g7T-46" style="edgeStyle=orthogonalEdgeStyle;rounded=0;orthogonalLoop=1;jettySize=auto;html=1;entryX=1;entryY=0.75;entryDx=0;entryDy=0;" edge="1" parent="1" source="M2dyejhgCw-LeY_53g7T-47" target="M2dyejhgCw-LeY_53g7T-35">
          <mxGeometry relative="1" as="geometry" />
        </mxCell>
        <mxCell id="M2dyejhgCw-LeY_53g7T-47" value="&lt;h2&gt;allied&lt;/h2&gt;" style="rhombus;whiteSpace=wrap;html=1;fillColor=#d5e8d4;strokeColor=#82b366;" vertex="1" parent="1">
          <mxGeometry x="970" y="675" width="100" height="75" as="geometry" />
        </mxCell>
        <mxCell id="M2dyejhgCw-LeY_53g7T-48" style="edgeStyle=orthogonalEdgeStyle;rounded=0;orthogonalLoop=1;jettySize=auto;html=1;" edge="1" parent="1" source="M2dyejhgCw-LeY_53g7T-50" target="M2dyejhgCw-LeY_53g7T-35">
          <mxGeometry relative="1" as="geometry" />
        </mxCell>
        <mxCell id="M2dyejhgCw-LeY_53g7T-49" style="edgeStyle=orthogonalEdgeStyle;rounded=0;orthogonalLoop=1;jettySize=auto;html=1;entryX=1;entryY=0.5;entryDx=0;entryDy=0;" edge="1" parent="1" source="M2dyejhgCw-LeY_53g7T-50" target="M2dyejhgCw-LeY_53g7T-17">
          <mxGeometry relative="1" as="geometry" />
        </mxCell>
        <mxCell id="M2dyejhgCw-LeY_53g7T-50" value="&lt;h2&gt;allied&lt;/h2&gt;" style="rhombus;whiteSpace=wrap;html=1;fillColor=#d5e8d4;strokeColor=#82b366;" vertex="1" parent="1">
          <mxGeometry x="600" y="562.5" width="100" height="75" as="geometry" />
        </mxCell>
        <mxCell id="M2dyejhgCw-LeY_53g7T-52" style="edgeStyle=orthogonalEdgeStyle;rounded=0;orthogonalLoop=1;jettySize=auto;html=1;entryX=0.75;entryY=1;entryDx=0;entryDy=0;" edge="1" parent="1" target="M2dyejhgCw-LeY_53g7T-35">
          <mxGeometry relative="1" as="geometry">
            <mxPoint x="870" y="790" as="sourcePoint" />
          </mxGeometry>
        </mxCell>
        <mxCell id="M2dyejhgCw-LeY_53g7T-54" style="edgeStyle=orthogonalEdgeStyle;rounded=0;orthogonalLoop=1;jettySize=auto;html=1;entryX=0.75;entryY=1;entryDx=0;entryDy=0;" edge="1" parent="1" source="M2dyejhgCw-LeY_53g7T-55" target="M2dyejhgCw-LeY_53g7T-25">
          <mxGeometry relative="1" as="geometry" />
        </mxCell>
        <mxCell id="M2dyejhgCw-LeY_53g7T-55" value="&lt;h2&gt;heads&lt;/h2&gt;" style="rhombus;whiteSpace=wrap;html=1;fillColor=#d5e8d4;strokeColor=#82b366;" vertex="1" parent="1">
          <mxGeometry x="670" y="460" width="100" height="60" as="geometry" />
        </mxCell>
        <mxCell id="M2dyejhgCw-LeY_53g7T-56" style="edgeStyle=orthogonalEdgeStyle;rounded=0;orthogonalLoop=1;jettySize=auto;html=1;entryX=0.45;entryY=0.075;entryDx=0;entryDy=0;entryPerimeter=0;" edge="1" parent="1" source="M2dyejhgCw-LeY_53g7T-55" target="M2dyejhgCw-LeY_53g7T-35">
          <mxGeometry relative="1" as="geometry" />
        </mxCell>
        <mxCell id="M2dyejhgCw-LeY_53g7T-57" value="&lt;font style=&quot;font-size: 25px;&quot;&gt;N&lt;/font&gt;" style="text;html=1;align=center;verticalAlign=middle;whiteSpace=wrap;rounded=0;fontColor=#FF0303;" vertex="1" parent="1">
          <mxGeometry x="160" y="280" width="60" height="30" as="geometry" />
        </mxCell>
        <mxCell id="M2dyejhgCw-LeY_53g7T-58" value="&lt;font color=&quot;#ff0000&quot; style=&quot;font-size: 25px;&quot;&gt;1&lt;/font&gt;" style="text;html=1;align=center;verticalAlign=middle;resizable=0;points=[];autosize=1;strokeColor=none;fillColor=none;" vertex="1" parent="1">
          <mxGeometry x="170" y="363" width="40" height="40" as="geometry" />
        </mxCell>
        <mxCell id="M2dyejhgCw-LeY_53g7T-59" value="&lt;font color=&quot;#ff0000&quot; style=&quot;font-size: 25px;&quot;&gt;1&lt;/font&gt;" style="text;html=1;align=center;verticalAlign=middle;resizable=0;points=[];autosize=1;strokeColor=none;fillColor=none;" vertex="1" parent="1">
          <mxGeometry x="720" y="420" width="40" height="40" as="geometry" />
        </mxCell>
        <mxCell id="M2dyejhgCw-LeY_53g7T-60" value="&lt;font color=&quot;#ff0000&quot; style=&quot;font-size: 25px;&quot;&gt;1&lt;/font&gt;" style="text;html=1;align=center;verticalAlign=middle;resizable=0;points=[];autosize=1;strokeColor=none;fillColor=none;" vertex="1" parent="1">
          <mxGeometry x="730" y="500" width="40" height="40" as="geometry" />
        </mxCell>
        <mxCell id="M2dyejhgCw-LeY_53g7T-61" value="&lt;font style=&quot;font-size: 25px;&quot;&gt;N&lt;/font&gt;" style="text;html=1;align=center;verticalAlign=middle;whiteSpace=wrap;rounded=0;fontColor=#FF0303;" vertex="1" parent="1">
          <mxGeometry x="560" y="562.5" width="60" height="30" as="geometry" />
        </mxCell>
        <mxCell id="M2dyejhgCw-LeY_53g7T-62" value="&lt;font style=&quot;font-size: 25px;&quot;&gt;N&lt;/font&gt;" style="text;html=1;align=center;verticalAlign=middle;whiteSpace=wrap;rounded=0;fontColor=#FF0303;" vertex="1" parent="1">
          <mxGeometry x="670" y="562.5" width="60" height="30" as="geometry" />
        </mxCell>
        <mxCell id="M2dyejhgCw-LeY_53g7T-63" value="&lt;font color=&quot;#ff0000&quot; style=&quot;font-size: 25px;&quot;&gt;1&lt;/font&gt;" style="text;html=1;align=center;verticalAlign=middle;resizable=0;points=[];autosize=1;strokeColor=none;fillColor=none;" vertex="1" parent="1">
          <mxGeometry x="1090" y="562.5" width="40" height="40" as="geometry" />
        </mxCell>
        <mxCell id="M2dyejhgCw-LeY_53g7T-64" value="&lt;font color=&quot;#ff0000&quot; style=&quot;font-size: 25px;&quot;&gt;1&lt;/font&gt;" style="text;html=1;align=center;verticalAlign=middle;resizable=0;points=[];autosize=1;strokeColor=none;fillColor=none;" vertex="1" parent="1">
          <mxGeometry x="1070" y="480" width="40" height="40" as="geometry" />
        </mxCell>
        <mxCell id="M2dyejhgCw-LeY_53g7T-65" value="&lt;font color=&quot;#ff0000&quot; style=&quot;font-size: 25px;&quot;&gt;1&lt;/font&gt;" style="text;html=1;align=center;verticalAlign=middle;resizable=0;points=[];autosize=1;strokeColor=none;fillColor=none;" vertex="1" parent="1">
          <mxGeometry x="1060" y="670" width="40" height="40" as="geometry" />
        </mxCell>
        <mxCell id="M2dyejhgCw-LeY_53g7T-66" value="&lt;font style=&quot;font-size: 25px;&quot;&gt;N&lt;/font&gt;" style="text;html=1;align=center;verticalAlign=middle;whiteSpace=wrap;rounded=0;fontColor=#FF0303;" vertex="1" parent="1">
          <mxGeometry x="940" y="475" width="60" height="30" as="geometry" />
        </mxCell>
        <mxCell id="M2dyejhgCw-LeY_53g7T-67" value="&lt;font style=&quot;font-size: 25px;&quot;&gt;N&lt;/font&gt;" style="text;html=1;align=center;verticalAlign=middle;whiteSpace=wrap;rounded=0;fontColor=#FF0303;" vertex="1" parent="1">
          <mxGeometry x="950" y="575" width="60" height="30" as="geometry" />
        </mxCell>
        <mxCell id="M2dyejhgCw-LeY_53g7T-68" value="&lt;font style=&quot;font-size: 25px;&quot;&gt;N&lt;/font&gt;" style="text;html=1;align=center;verticalAlign=middle;whiteSpace=wrap;rounded=0;fontColor=#FF0303;" vertex="1" parent="1">
          <mxGeometry x="930" y="675" width="60" height="30" as="geometry" />
        </mxCell>
        <mxCell id="M2dyejhgCw-LeY_53g7T-69" value="&lt;font style=&quot;font-size: 25px;&quot;&gt;N&lt;/font&gt;" style="text;html=1;align=center;verticalAlign=middle;whiteSpace=wrap;rounded=0;fontColor=#FF0303;" vertex="1" parent="1">
          <mxGeometry x="480" y="390" width="60" height="30" as="geometry" />
        </mxCell>
        <mxCell id="M2dyejhgCw-LeY_53g7T-70" value="&lt;font style=&quot;font-size: 25px;&quot;&gt;N&lt;/font&gt;" style="text;html=1;align=center;verticalAlign=middle;whiteSpace=wrap;rounded=0;fontColor=#FF0303;" vertex="1" parent="1">
          <mxGeometry x="480" y="502.5" width="60" height="30" as="geometry" />
        </mxCell>
        <mxCell id="M2dyejhgCw-LeY_53g7T-78" value="&lt;font style=&quot;font-size: 21px;&quot;&gt;Enrolls&lt;/font&gt;" style="text;html=1;align=center;verticalAlign=middle;whiteSpace=wrap;rounded=0;fontColor=#FF0019;" vertex="1" parent="1">
          <mxGeometry x="310" y="485" width="60" height="30" as="geometry" />
        </mxCell>
        <mxCell id="M2dyejhgCw-LeY_53g7T-82" value="&lt;h2&gt;gender&lt;br&gt;&lt;/h2&gt;" style="ellipse;whiteSpace=wrap;html=1;fillColor=#a20025;strokeColor=#6F0000;fontColor=#ffffff;" vertex="1" parent="1">
          <mxGeometry x="10" y="10" width="120" height="50" as="geometry" />
        </mxCell>
        <mxCell id="M2dyejhgCw-LeY_53g7T-83" value="&lt;h2&gt;birthday&lt;/h2&gt;" style="ellipse;whiteSpace=wrap;html=1;fillColor=#a20025;strokeColor=#6F0000;fontColor=#ffffff;" vertex="1" parent="1">
          <mxGeometry x="130" y="10" width="120" height="50" as="geometry" />
        </mxCell>
        <mxCell id="M2dyejhgCw-LeY_53g7T-86" value="&lt;h2&gt;name&lt;/h2&gt;" style="ellipse;whiteSpace=wrap;html=1;fillColor=#a20025;strokeColor=#6F0000;fontColor=#ffffff;" vertex="1" parent="1">
          <mxGeometry x="250" y="10" width="120" height="50" as="geometry" />
        </mxCell>
        <mxCell id="M2dyejhgCw-LeY_53g7T-88" value="&lt;h2&gt;adress&lt;/h2&gt;" style="ellipse;whiteSpace=wrap;html=1;fillColor=#a20025;strokeColor=#6F0000;fontColor=#ffffff;" vertex="1" parent="1">
          <mxGeometry x="370" y="10" width="120" height="50" as="geometry" />
        </mxCell>
        <mxCell id="M2dyejhgCw-LeY_53g7T-89" value="&lt;h2&gt;&lt;u&gt;email&lt;/u&gt;&lt;/h2&gt;" style="ellipse;whiteSpace=wrap;html=1;fillColor=#a20025;strokeColor=#6F0000;fontColor=#ffffff;" vertex="1" parent="1">
          <mxGeometry x="490" y="10" width="120" height="50" as="geometry" />
        </mxCell>
        <mxCell id="M2dyejhgCw-LeY_53g7T-90" value="&lt;h2&gt;&lt;u&gt;name&lt;/u&gt;&lt;/h2&gt;" style="ellipse;whiteSpace=wrap;html=1;fillColor=#a20025;strokeColor=#6F0000;fontColor=#ffffff;" vertex="1" parent="1">
          <mxGeometry x="780" y="220" width="120" height="50" as="geometry" />
        </mxCell>
        <mxCell id="M2dyejhgCw-LeY_53g7T-91" value="&lt;h2&gt;license&lt;/h2&gt;" style="ellipse;whiteSpace=wrap;html=1;fillColor=#a20025;strokeColor=#6F0000;fontColor=#ffffff;" vertex="1" parent="1">
          <mxGeometry x="840" y="330" width="120" height="50" as="geometry" />
        </mxCell>
        <mxCell id="M2dyejhgCw-LeY_53g7T-93" value="&lt;h2&gt;courses&lt;br&gt;&lt;/h2&gt;" style="ellipse;whiteSpace=wrap;html=1;fillColor=#a20025;strokeColor=#6F0000;fontColor=#ffffff;" vertex="1" parent="1">
          <mxGeometry x="850" y="435" width="120" height="50" as="geometry" />
        </mxCell>
        <mxCell id="M2dyejhgCw-LeY_53g7T-94" value="&lt;h2&gt;&lt;u&gt;course number&lt;/u&gt;&lt;/h2&gt;" style="ellipse;whiteSpace=wrap;html=1;fillColor=#a20025;strokeColor=#6F0000;fontColor=#ffffff;" vertex="1" parent="1">
          <mxGeometry x="280" y="755" width="120" height="50" as="geometry" />
        </mxCell>
        <mxCell id="M2dyejhgCw-LeY_53g7T-95" value="&lt;h2&gt;title&lt;/h2&gt;" style="ellipse;whiteSpace=wrap;html=1;fillColor=#a20025;strokeColor=#6F0000;fontColor=#ffffff;" vertex="1" parent="1">
          <mxGeometry x="435" y="765" width="120" height="50" as="geometry" />
        </mxCell>
        <mxCell id="M2dyejhgCw-LeY_53g7T-96" value="&lt;h2&gt;target&lt;/h2&gt;" style="ellipse;whiteSpace=wrap;html=1;fillColor=#a20025;strokeColor=#6F0000;fontColor=#ffffff;" vertex="1" parent="1">
          <mxGeometry x="600" y="750" width="120" height="50" as="geometry" />
        </mxCell>
        <mxCell id="M2dyejhgCw-LeY_53g7T-98" value="&lt;h2&gt;&lt;u&gt;name&lt;/u&gt;&lt;/h2&gt;" style="ellipse;whiteSpace=wrap;html=1;fillColor=#a20025;strokeColor=#6F0000;fontColor=#ffffff;" vertex="1" parent="1">
          <mxGeometry x="740" y="830" width="120" height="50" as="geometry" />
        </mxCell>
        <mxCell id="M2dyejhgCw-LeY_53g7T-99" value="&lt;h2&gt;description&lt;/h2&gt;" style="ellipse;whiteSpace=wrap;html=1;fillColor=#a20025;strokeColor=#6F0000;fontColor=#ffffff;" vertex="1" parent="1">
          <mxGeometry x="870" y="765" width="120" height="50" as="geometry" />
        </mxCell>
      </root>
    </mxGraphModel>
  </diagram>
</mxfile>
